<?xml version="1.0" encoding="UTF-8" standalone="no"?>
<!-- Created with Inkscape (http://www.inkscape.org/) -->

<svg
   width="176.32925mm"
   height="54.460144mm"
   viewBox="0 0 176.32925 54.460144"
   version="1.1"
   id="svg1"
   inkscape:version="1.4.3 (0d15f75042, 2025-12-25)"
   sodipodi:docname="dsb-fc.svg"
   xmlns:inkscape="http://www.inkscape.org/namespaces/inkscape"
   xmlns:sodipodi="http://sodipodi.sourceforge.net/DTD/sodipodi-0.dtd"
   xmlns="http://www.w3.org/2000/svg"
   xmlns:svg="http://www.w3.org/2000/svg">
  <sodipodi:namedview
     id="namedview1"
     pagecolor="#ffffff"
     bordercolor="#999999"
     borderopacity="1"
     inkscape:showpageshadow="2"
     inkscape:pageopacity="0"
     inkscape:pagecheckerboard="0"
     inkscape:deskcolor="#d1d1d1"
     inkscape:document-units="mm"
     showgrid="true"
     inkscape:zoom="0.74386223"
     inkscape:cx="569.32585"
     inkscape:cy="105.53029"
     inkscape:window-width="1896"
     inkscape:window-height="1033"
     inkscape:window-x="12"
     inkscape:window-y="10"
     inkscape:window-maximized="0"
     inkscape:current-layer="layer1">
    <inkscape:grid
       id="grid1"
       units="mm"
       originx="5.4059198"
       originy="-120.8906"
       spacingx="0.5"
       spacingy="0.5"
       empcolor="#0099e5"
       empopacity="0.30196078"
       color="#0099e5"
       opacity="0.14901961"
       empspacing="5"
       enabled="true"
       visible="true" />
  </sodipodi:namedview>
  <defs
     id="defs1">
    <marker
       style="overflow:visible"
       id="ConcaveTriangle"
       refX="0"
       refY="0"
       orient="auto-start-reverse"
       inkscape:stockid="Concave triangle arrow"
       markerWidth="1"
       markerHeight="1"
       viewBox="0 0 1 1"
       inkscape:isstock="true"
       inkscape:collect="always"
       preserveAspectRatio="xMidYMid">
      <path
         transform="scale(0.7)"
         d="M -2,-4 9,0 -2,4 c 2,-2.33 2,-5.66 0,-8 z"
         style="fill:context-stroke;fill-rule:evenodd;stroke:none"
         id="path8" />
    </marker>
    <marker
       style="overflow:visible"
       id="ConcaveTriangle-7"
       refX="0"
       refY="0"
       orient="auto-start-reverse"
       inkscape:stockid="Concave triangle arrow"
       markerWidth="1"
       markerHeight="1"
       viewBox="0 0 1 1"
       inkscape:isstock="true"
       inkscape:collect="always"
       preserveAspectRatio="xMidYMid">
      <path
         transform="scale(0.7)"
         d="M -2,-4 9,0 -2,4 c 2,-2.33 2,-5.66 0,-8 z"
         style="fill:context-stroke;fill-rule:evenodd;stroke:none"
         id="path8-9" />
    </marker>
  </defs>
  <g
     inkscape:label="Layer 1"
     inkscape:groupmode="layer"
     id="layer1"
     transform="translate(5.40592,-120.89061)">
    <circle
       style="fill:none;stroke:#000000;stroke-width:0.7;stroke-dasharray:none"
       id="path2"
       cx="79.852097"
       cy="131.42694"
       r="10.137125" />
    <circle
       style="fill:none;stroke:#000000;stroke-width:0.7;stroke-dasharray:none"
       id="path2-3"
       cx="124.40982"
       cy="131.37773"
       r="10.137125" />
    <path
       style="fill:none;stroke:#000000;stroke-width:0.7;stroke-dasharray:none"
       d="m 117.37724,124.13533 12.09342,15.29461"
       id="path3" />
    <path
       style="fill:none;stroke:#000000;stroke-width:0.7;stroke-dasharray:none"
       d="M 131.2491,124.49102 118.44431,137.6515"
       id="path4" />
    <path
       style="fill:none;stroke:#000000;stroke-width:0.7;stroke-dasharray:none"
       d="m 80.029939,123.42395 -0.355687,16.00599"
       id="path5" />
    <path
       style="fill:none;stroke:#000000;stroke-width:0.7;stroke-dasharray:none"
       d="M 72.204789,131.60479 87.143712,131.2491"
       id="path6" />
    <path
       style="fill:none;stroke:#000000;stroke-width:0.7;stroke-dasharray:none;marker-end:url(#ConcaveTriangle)"
       d="M 49.085026,130.89341 H 65.299322"
       id="path7" />
    <path
       style="fill:none;stroke:#000000;stroke-width:0.699999;stroke-dasharray:none;marker-end:url(#ConcaveTriangle)"
       d="M 90.335006,131.71596 H 110.69174"
       id="path7-3" />
    <path
       style="fill:none;stroke:#000000;stroke-width:0.700002;stroke-dasharray:none;marker-end:url(#ConcaveTriangle)"
       d="m 135.79733,131.35969 h 12.03734"
       id="path7-3-6" />
    <path
       style="fill:none;stroke:#000000;stroke-width:0.700001;stroke-dasharray:none;marker-end:url(#ConcaveTriangle)"
       d="M 79.615144,158.92896 V 143.76724"
       id="path7-1" />
    <path
       style="fill:none;stroke:#000000;stroke-width:0.700001;stroke-dasharray:none;marker-end:url(#ConcaveTriangle-7)"
       d="M 124.54563,160.48608 V 145.32436"
       id="path7-1-2" />
    <path
       style="fill:none;stroke:#000000;stroke-width:0.7;stroke-dasharray:none"
       d="m 83.942514,162.90539 c -0.984202,0 -1.428668,0.26748 -2.134132,0.35568 -1.984523,0.24807 -4.06001,-0.23063 -6.046708,0 -0.297424,1.43296 -4.245626,8.91486 -2.845506,10.31498 0.357073,0.35707 4.637694,-0.35569 5.335329,-0.35569"
       id="path9" />
    <path
       style="fill:none;stroke:#000000;stroke-width:0.7;stroke-dasharray:none"
       d="m 75.761674,167.52934 c -0.474249,-0.11856 -1.304189,-0.82994 -1.422754,-0.35569 -0.118563,0.47425 0.933908,0.35569 1.422754,0.35569 1.168223,0 2.364079,-0.35569 3.556887,-0.35569"
       id="path10" />
    <path
       style="fill:none;stroke:#000000;stroke-width:0.7;stroke-dasharray:none"
       d="m 84.298202,169.30778 c -2.446931,0.059 -6.367264,3.57446 -2.845509,5.33533 0.53023,0.26512 1.185629,0 1.778444,0"
       id="path11" />
    <path
       style="fill:none;stroke:#000000;stroke-width:0.7;stroke-dasharray:none"
       d="m -4.9796411,133.38323 c 0.592814,-0.11856 1.897006,0.23713 1.778443,-0.35569 -0.118563,-0.59281 -2.296844,0.66673 -1.778443,0.35569 3.557862,-2.13472 4.26826298,-0.34197 4.26826298,-3.91257 0,-0.60342 0.133045,-1.28971 -0.35568798,-1.77845 -0.25151,-0.25151 0,0.71138 0,1.06707 0,0.48172 0.24305998,2.09562 0.35568798,2.48982 -0.83271698,1.33631 0.848447,1.12259 1.067066,1.77844 0.07499,0.22496 -0.106046,0.49929 0,0.71138 0.0067,0.0133 0.84032002,-0.12894 0.355689,0.35569 -0.41133,0.41133 -2.12255298,0.71138 -2.84550898,0.71138 -0.265115,0 -0.620803,-0.71138 -0.355689,-0.71138 0.455906,0 1.79572798,1.06706 2.4898199802395,1.06706 C 1.0311929,135.16167 2.9722919,132.79864 2.1341309,131.96048 c -0.08384,-0.0838 -0.271852,0.0838 -0.355689,0 -0.08384,-0.0838 0.118563,-0.35569 0,-0.35569 -0.237125,0 0,0.47425 0,0.71138 0,0.17839 -0.163381,2.24474 0,2.48982 0.241046,0.36156 1.359765,0.49524 1.778444,0.35568 1.632638,-0.54421 2.599576,-3.85769 3.201197,-3.55688 0.784643,0.39232 0.417832,2.78336 0,3.2012 -0.05928,0.0593 -0.82994,0.47425 -0.355688,0 0.08384,-0.0838 0.302665,0.10604 0.355688,0 0.218619,-0.43724 0.157149,-0.97604 0.355689,-1.42276 0.338173,-0.76089 2.251258,-4.59467 3.5568871,-4.26826 0.90329,0.22582 -0.05974,4.14878 0.355687,4.97964 0.06507,0.13014 2.845509,1.62383 2.845509,0"
       id="path14" />
    <path
       style="fill:none;stroke:#000000;stroke-width:0.7;stroke-dasharray:none"
       d="m 3.5568859,129.11498 c -0.474251,0.11856 -1.541317,-0.11857 -1.422754,0.35568 0.118563,0.47426 0.948503,-0.23712 1.422754,-0.35568 z"
       id="path15" />
    <path
       style="fill:none;stroke:#000000;stroke-width:0.7;stroke-dasharray:none"
       d="m 18.140119,129.47066 c -0.35569,0.47425 -1.541317,1.06707 -1.067067,1.42275 0.474253,0.35569 1.332183,-1.95298 1.067067,-1.42275 -0.500218,1.00044 -1.315595,1.82725 -1.778441,2.84551 -0.235464,0.51802 0.09664,2.05807 0.355687,2.48982 0.809598,1.34933 0.42514,0.37884 1.422754,0.71138 0.159068,0.053 0.188016,0.35568 0.355688,0.35568 0.265115,0 0.454178,-0.29138 0.711377,-0.35568 0.230047,-0.0575 0.486421,0.075 0.711377,0 1.16241,-0.38747 2.134132,-2.48507 2.134132,-3.55689 0,-0.23712 0.167674,-0.5437 0,-0.71138 -0.878488,-0.87848 -2.833187,4.20693 1.067067,3.55689 2.639383,-0.4399 3.103356,-4.6953 2.845509,-6.75809 -0.03289,-0.26306 -0.271851,-0.45986 -0.35569,-0.71137 -0.07498,-0.22496 0.106048,-0.49929 0,-0.71138 -0.07498,-0.14997 -0.237124,-0.47425 -0.355687,-0.35569 -0.118562,0.11857 0.237125,0.23713 0.355687,0.35569"
       id="path19" />
    <path
       style="fill:none;stroke:#000000;stroke-width:0.7;stroke-dasharray:none"
       d="m 29.166466,132.67186 c -0.118563,0.47425 -0.82994,1.30419 -0.355688,1.42275 0.47425,0.11857 0.537242,-1.87664 0.355688,-1.42275 -0.417735,1.04434 -0.74386,2.12385 -1.067065,3.20119 -0.04818,0.16061 -0.408712,0.51476 -0.35569,0.35569 0.135184,-0.40554 0.552614,-0.67015 0.711377,-1.06706 0.320567,-0.80142 -0.03419,-2.0549 0.711378,-2.48982 6.788187,-3.95978 2.44906,2.80475 2.489821,2.84551 0.451475,0.45147 0.372984,-1.23701 0.711378,-1.77845 0.533199,-0.85312 1.315484,-1.54938 2.134131,-2.13413 1.866289,-1.33306 3.845963,-1.46674 4.268264,1.06707 0.224586,1.34752 -0.711377,2.57646 -0.711377,3.91257"
       id="path20" />
    <path
       style="fill:none;stroke:#000000;stroke-width:0.7;stroke-dasharray:none"
       d="m 44.816765,124.84671 c -0.425002,0.89748 -3.36524,9.81148 0.711378,8.18084 0.793818,-0.31753 1.422754,-0.94851 2.134131,-1.42276"
       id="path21" />
    <path
       style="fill:none;stroke:#000000;stroke-width:0.7;stroke-dasharray:none"
       d="m 39.481437,125.55809 c 8.292132,1.24382 4.727885,0.82847 10.670659,1.42275"
       id="path22" />
    <path
       style="fill:none;stroke:#000000;stroke-width:0.7;stroke-dasharray:none"
       d="m 103.45894,170.84475 c 0.59281,-0.11856 1.897,0.23713 1.77844,-0.35569 -0.11856,-0.59281 -2.29684,0.66673 -1.77844,0.35569 3.55786,-2.13472 4.26826,-0.34197 4.26826,-3.91257 0,-0.60342 0.13305,-1.28971 -0.35569,-1.77845 -0.25151,-0.25151 0,0.71138 0,1.06707 0,0.48172 0.24306,2.09562 0.35569,2.48982 -0.83272,1.33631 0.84845,1.12259 1.06707,1.77844 0.075,0.22496 -0.10605,0.49929 0,0.71138 0.007,0.0133 0.84032,-0.12894 0.35569,0.35569 -0.41133,0.41133 -2.12256,0.71138 -2.84551,0.71138 -0.26512,0 -0.62081,-0.71138 -0.35569,-0.71138 0.4559,0 1.79573,1.06706 2.48982,1.06706 1.03119,0 2.97229,-2.36303 2.13413,-3.20119 -0.0838,-0.0838 -0.27185,0.0838 -0.35569,0 -0.0838,-0.0838 0.11856,-0.35569 0,-0.35569 -0.23712,0 0,0.47425 0,0.71138 0,0.17839 -0.16338,2.24474 0,2.48982 0.24105,0.36156 1.35977,0.49524 1.77845,0.35568 1.63263,-0.54421 2.59957,-3.85769 3.20119,-3.55688 0.78465,0.39232 0.41783,2.78336 0,3.2012 -0.0593,0.0593 -0.82994,0.47425 -0.35569,0 0.0838,-0.0838 0.30267,0.10604 0.35569,0 0.21862,-0.43724 0.15715,-0.97604 0.35569,-1.42276 0.33817,-0.76089 2.25126,-4.59467 3.55689,-4.26826 0.90329,0.22582 -0.0597,4.14878 0.35569,4.97964 0.0651,0.13014 2.8455,1.62383 2.8455,0"
       id="path14-9" />
    <path
       style="fill:none;stroke:#000000;stroke-width:0.7;stroke-dasharray:none"
       d="m 111.99547,166.5765 c -0.47426,0.11856 -1.54132,-0.11857 -1.42276,0.35568 0.11856,0.47426 0.9485,-0.23712 1.42276,-0.35568 z"
       id="path15-3" />
    <path
       style="fill:none;stroke:#000000;stroke-width:0.7;stroke-dasharray:none"
       d="m 126.5787,166.93218 c -0.35569,0.47425 -1.54132,1.06707 -1.06707,1.42275 0.47426,0.35569 1.33219,-1.95298 1.06707,-1.42275 -0.50022,1.00044 -1.31559,1.82725 -1.77844,2.84551 -0.23546,0.51802 0.0966,2.05807 0.35569,2.48982 0.8096,1.34933 0.42514,0.37884 1.42275,0.71138 0.15907,0.053 0.18802,0.35568 0.35569,0.35568 0.26512,0 0.45418,-0.29138 0.71138,-0.35568 0.23004,-0.0575 0.48642,0.075 0.71137,0 1.16241,-0.38747 2.13414,-2.48507 2.13414,-3.55689 0,-0.23712 0.16767,-0.5437 0,-0.71138 -0.87849,-0.87848 -2.83319,4.20693 1.06706,3.55689 2.63939,-0.4399 3.10336,-4.6953 2.84551,-6.75809 -0.0329,-0.26306 -0.27185,-0.45986 -0.35569,-0.71137 -0.075,-0.22496 0.10605,-0.49929 0,-0.71138 -0.075,-0.14997 -0.23712,-0.47425 -0.35569,-0.35569 -0.11856,0.11857 0.23713,0.23713 0.35569,0.35569"
       id="path19-1" />
    <path
       style="fill:none;stroke:#000000;stroke-width:0.7;stroke-dasharray:none"
       d="m 147.20864,163.73098 c -0.425,0.89748 -3.36524,9.81148 0.71138,8.18084 0.79381,-0.31753 1.42275,-0.94851 2.13413,-1.42276"
       id="path21-4" />
    <path
       style="fill:none;stroke:#000000;stroke-width:0.7;stroke-dasharray:none"
       d="m 141.87331,164.44236 c 8.29213,1.24382 4.72788,0.82847 10.67066,1.42275"
       id="path22-7" />
    <path
       style="fill:none;stroke:#000000;stroke-width:0.7;stroke-dasharray:none"
       d="m 140.8527,171.08623 c -0.47425,-0.11857 -1.30419,-0.82994 -1.42276,-0.35569 -0.11856,0.47425 1.89701,0.23712 1.42276,0.35569 -0.60897,0.15224 -3.16344,-0.41233 -3.91258,0.71137 -0.13153,0.19731 0.075,0.48643 0,0.71138 -0.053,0.15907 -0.35569,0.18802 -0.35569,0.35569 0,0.16768 0.28071,0.20572 0.35569,0.35569 0.10779,0.21557 0.20664,0.91802 0.35569,1.06707 0.0838,0.0838 0.24321,-0.0375 0.35569,0 1.49049,0.49683 2.37185,1.12605 3.91257,0.35568"
       id="path23" />
    <text
       xml:space="preserve"
       style="font-size:9.87777px;font-family:arial;-inkscape-font-specification:arial;writing-mode:lr-tb;direction:ltr;fill:none;stroke:#000000;stroke-width:0.7;stroke-dasharray:none"
       x="154.72453"
       y="134.0946"
       id="text23"><tspan
         sodipodi:role="line"
         id="tspan23"
         style="fill:#000000;stroke-width:0.7"
         x="154.72453"
         y="134.0946">Out</tspan></text>
  </g>
</svg>
